<svg width="28" height="28" viewBox="0 0 28 28" fill="none" xmlns="http://www.w3.org/2000/svg">
<g clip-path="url(#clip0_271_12382)">
<path d="M19.4166 10.6667V6.49999M8.58329 21.5V17.3333M17.3333 8.58332H21.5M6.49996 19.4167H10.6666M9.41663 5.66666L8.76291 6.97409C8.54167 7.41657 8.43105 7.63781 8.28327 7.82953C8.15213 7.99965 7.99962 8.15216 7.8295 8.2833C7.63778 8.43108 7.41654 8.5417 6.97406 8.76294L5.66663 9.41666L6.97406 10.0704C7.41654 10.2916 7.63778 10.4022 7.8295 10.55C7.99962 10.6811 8.15213 10.8337 8.28327 11.0038C8.43105 11.1955 8.54167 11.4167 8.76291 11.8592L9.41663 13.1667L10.0703 11.8592C10.2916 11.4167 10.4022 11.1955 10.55 11.0038C10.6811 10.8337 10.8336 10.6811 11.0038 10.55C11.1955 10.4022 11.4167 10.2916 11.8592 10.0704L13.1666 9.41666L11.8592 8.76294C11.4167 8.5417 11.1955 8.43108 11.0038 8.2833C10.8336 8.15216 10.6811 7.99965 10.55 7.82953C10.4022 7.63781 10.2916 7.41657 10.0703 6.97409L9.41663 5.66666ZM18.1666 14L17.374 15.5852C17.1528 16.0277 17.0422 16.2489 16.8944 16.4406C16.7632 16.6108 16.6107 16.7633 16.4406 16.8944C16.2489 17.0422 16.0277 17.1528 15.5852 17.3741L14 18.1667L15.5852 18.9593C16.0276 19.1805 16.2489 19.2911 16.4406 19.4389C16.6107 19.57 16.7632 19.7226 16.8944 19.8927C17.0422 20.0844 17.1528 20.3056 17.374 20.7481L18.1666 22.3333L18.9592 20.7481C19.1805 20.3056 19.2911 20.0844 19.4389 19.8927C19.57 19.7226 19.7225 19.57 19.8926 19.4389C20.0844 19.2911 20.3056 19.1805 20.7481 18.9593L22.3333 18.1667L20.7481 17.3741C20.3056 17.1528 20.0844 17.0422 19.8926 16.8944C19.7225 16.7633 19.57 16.6108 19.4389 16.4406C19.2911 16.2489 19.1805 16.0277 18.9592 15.5852L18.1666 14Z" stroke="#565F6C" stroke-width="1.5" stroke-linecap="round" stroke-linejoin="round"/>
</g>
<defs>
<clipPath id="clip0_271_12382">
<rect width="20" height="20" fill="white" transform="translate(4 4)"/>
</clipPath>
</defs>
</svg>
