<svg width="28" height="36" viewBox="0 0 28 36" fill="none" xmlns="http://www.w3.org/2000/svg">
<path d="M18.1667 15.9167V13.0833C18.1667 12.6166 18.1667 12.3833 18.0758 12.205C17.9959 12.0482 17.8685 11.9207 17.7117 11.8408C17.5334 11.75 17.3 11.75 16.8333 11.75H6.5M14.8333 20.0833V22.9167C14.8333 23.3834 14.8333 23.6167 14.7425 23.795C14.6626 23.9518 14.5351 24.0793 14.3783 24.1592C14.2001 24.25 13.9667 24.25 13.5 24.25H6.5M6.5 9.66666L6.5 26.3333M6.5 20.0833L20.1667 20.0833C20.6334 20.0833 20.8667 20.0833 21.045 19.9925C21.2018 19.9126 21.3293 19.7851 21.4092 19.6283C21.5 19.4501 21.5 19.2167 21.5 18.75V17.25C21.5 16.7833 21.5 16.5499 21.4092 16.3717C21.3293 16.2149 21.2018 16.0874 21.045 16.0075C20.8667 15.9167 20.6334 15.9167 20.1667 15.9167L6.5 15.9167L6.5 20.0833Z" stroke="#565F6C" stroke-width="1.5" stroke-linecap="round" stroke-linejoin="round"/>
</svg>
