<svg width="28" height="36" viewBox="0 0 28 36" fill="none" xmlns="http://www.w3.org/2000/svg">
<g clip-path="url(#clip0_271_11300)">
<path d="M21.6666 26.3333C21.9 26.3333 22.0167 26.3333 22.1058 26.2879C22.1842 26.248 22.2479 26.1842 22.2879 26.1058C22.3333 26.0167 22.3333 25.9 22.3333 25.6667V17C22.3333 16.7666 22.3333 16.65 22.2879 16.5608C22.2479 16.4824 22.1842 16.4187 22.1058 16.3787C22.0167 16.3333 21.9 16.3333 21.6666 16.3333L19.6666 16.3333C19.4333 16.3333 19.3166 16.3333 19.2275 16.3787C19.1491 16.4187 19.0853 16.4824 19.0454 16.5608C19 16.65 19 16.7666 19 17V19C19 19.2333 19 19.35 18.9545 19.4392C18.9146 19.5176 18.8509 19.5813 18.7725 19.6212C18.6833 19.6667 18.5666 19.6667 18.3333 19.6667H16.3333C16.0999 19.6667 15.9833 19.6667 15.8941 19.7121C15.8157 19.752 15.752 19.8158 15.712 19.8942C15.6666 19.9833 15.6666 20.1 15.6666 20.3333V22.3333C15.6666 22.5667 15.6666 22.6834 15.6212 22.7725C15.5813 22.8509 15.5175 22.9146 15.4391 22.9546C15.35 23 15.2333 23 15 23H13C12.7666 23 12.6499 23 12.5608 23.0454C12.4824 23.0854 12.4187 23.1491 12.3787 23.2275C12.3333 23.3166 12.3333 23.4333 12.3333 23.6667V25.6667C12.3333 25.9 12.3333 26.0167 12.3787 26.1058C12.4187 26.1842 12.4824 26.248 12.5608 26.2879C12.6499 26.3333 12.7666 26.3333 13 26.3333L21.6666 26.3333Z" stroke="#565F6C" stroke-width="1.5" stroke-linecap="round" stroke-linejoin="round"/>
<path d="M12.3333 13.6667C12.3333 13.4333 12.3333 13.3166 12.3787 13.2275C12.4187 13.1491 12.4824 13.0854 12.5608 13.0454C12.6499 13 12.7666 13 13 13H15C15.2333 13 15.35 13 15.4391 13.0454C15.5175 13.0854 15.5813 13.1491 15.6212 13.2275C15.6666 13.3166 15.6666 13.4333 15.6666 13.6667V15.6667C15.6666 15.9 15.6666 16.0167 15.6212 16.1058C15.5813 16.1842 15.5175 16.248 15.4391 16.2879C15.35 16.3333 15.2333 16.3333 15 16.3333H13C12.7666 16.3333 12.6499 16.3333 12.5608 16.2879C12.4824 16.248 12.4187 16.1842 12.3787 16.1058C12.3333 16.0167 12.3333 15.9 12.3333 15.6667V13.6667Z" stroke="#565F6C" stroke-width="1.5" stroke-linecap="round" stroke-linejoin="round"/>
<path d="M6.49996 18.6667C6.49996 18.4333 6.49996 18.3166 6.54537 18.2275C6.58532 18.1491 6.64906 18.0854 6.72746 18.0454C6.81659 18 6.93327 18 7.16663 18H9.16663C9.39998 18 9.51666 18 9.60579 18.0454C9.68419 18.0854 9.74793 18.1491 9.78788 18.2275C9.83329 18.3166 9.83329 18.4333 9.83329 18.6667V20.6667C9.83329 20.9 9.83329 21.0167 9.78788 21.1058C9.74793 21.1842 9.68419 21.248 9.60579 21.2879C9.51666 21.3333 9.39998 21.3333 9.16663 21.3333H7.16663C6.93327 21.3333 6.81659 21.3333 6.72746 21.2879C6.64906 21.248 6.58532 21.1842 6.54537 21.1058C6.49996 21.0167 6.49996 20.9 6.49996 20.6667V18.6667Z" stroke="#565F6C" stroke-width="1.5" stroke-linecap="round" stroke-linejoin="round"/>
<path d="M5.66663 10.3333C5.66663 10.1 5.66663 9.98329 5.71204 9.89416C5.75199 9.81576 5.81573 9.75202 5.89413 9.71207C5.98326 9.66666 6.09994 9.66666 6.33329 9.66666H8.33329C8.56665 9.66666 8.68333 9.66666 8.77246 9.71207C8.85086 9.75202 8.9146 9.81576 8.95455 9.89416C8.99996 9.98329 8.99996 10.1 8.99996 10.3333V12.3333C8.99996 12.5667 8.99996 12.6834 8.95455 12.7725C8.9146 12.8509 8.85086 12.9146 8.77246 12.9546C8.68333 13 8.56665 13 8.33329 13H6.33329C6.09994 13 5.98326 13 5.89413 12.9546C5.81573 12.9146 5.75199 12.8509 5.71204 12.7725C5.66663 12.6834 5.66663 12.5667 5.66663 12.3333V10.3333Z" stroke="#565F6C" stroke-width="1.5" stroke-linecap="round" stroke-linejoin="round"/>
</g>
<defs>
<clipPath id="clip0_271_11300">
<rect width="20" height="20" fill="white" transform="translate(4 8)"/>
</clipPath>
</defs>
</svg>
