<svg width="28" height="36" viewBox="0 0 28 36" fill="none" xmlns="http://www.w3.org/2000/svg">
<path d="M21.0833 14.6667V21.5C21.0833 22.9001 21.0833 23.6002 20.8108 24.135C20.5711 24.6054 20.1887 24.9878 19.7183 25.2275C19.1835 25.5 18.4834 25.5 17.0833 25.5H10.9166C9.51649 25.5 8.81643 25.5 8.28165 25.2275C7.81124 24.9878 7.42879 24.6054 7.18911 24.135C6.91663 23.6002 6.91663 22.9001 6.91663 21.5V14.6667M6.99996 10.5H21C21.4667 10.5 21.7 10.5 21.8783 10.5908C22.0351 10.6707 22.1626 10.7982 22.2425 10.955C22.3333 11.1333 22.3333 11.3666 22.3333 11.8333V13.3333C22.3333 13.8 22.3333 14.0334 22.2425 14.2117C22.1626 14.3685 22.0351 14.4959 21.8783 14.5758C21.7 14.6667 21.4667 14.6667 21 14.6667H6.99996C6.53325 14.6667 6.29989 14.6667 6.12163 14.5758C5.96483 14.4959 5.83735 14.3685 5.75745 14.2117C5.66663 14.0334 5.66663 13.8 5.66663 13.3333V11.8333C5.66663 11.3666 5.66663 11.1333 5.75745 10.955C5.83735 10.7982 5.96483 10.6707 6.12163 10.5908C6.29989 10.5 6.53325 10.5 6.99996 10.5ZM12 17.5833H16C16.4667 17.5833 16.7 17.5833 16.8783 17.6742C17.0351 17.7541 17.1626 17.8815 17.2425 18.0383C17.3333 18.2166 17.3333 18.45 17.3333 18.9167V19.5833C17.3333 20.05 17.3333 20.2834 17.2425 20.4617C17.1626 20.6185 17.0351 20.7459 16.8783 20.8258C16.7 20.9167 16.4667 20.9167 16 20.9167H12C11.5332 20.9167 11.2999 20.9167 11.1216 20.8258C10.9648 20.7459 10.8373 20.6185 10.7575 20.4617C10.6666 20.2834 10.6666 20.05 10.6666 19.5833V18.9167C10.6666 18.45 10.6666 18.2166 10.7575 18.0383C10.8373 17.8815 10.9648 17.7541 11.1216 17.6742C11.2999 17.5833 11.5332 17.5833 12 17.5833Z" stroke="#464E58" stroke-width="1.5" stroke-linecap="round" stroke-linejoin="round"/>
</svg>
