<svg preserveAspectRatio="none" width="100%" height="100%" overflow="visible" style="display: block;" viewBox="0 0 3.16667 14.8333" fill="none" xmlns="http://www.w3.org/2000/svg">
<g id="Icon">
<path d="M1.58333 8.25C2.04357 8.25 2.41667 7.8769 2.41667 7.41667C2.41667 6.95643 2.04357 6.58333 1.58333 6.58333C1.1231 6.58333 0.75 6.95643 0.75 7.41667C0.75 7.8769 1.1231 8.25 1.58333 8.25Z" stroke="var(--stroke-0, #565F6C)" stroke-width="1.5" stroke-linecap="round" stroke-linejoin="round"/>
<path d="M1.58333 2.41667C2.04357 2.41667 2.41667 2.04357 2.41667 1.58333C2.41667 1.1231 2.04357 0.75 1.58333 0.75C1.1231 0.75 0.75 1.1231 0.75 1.58333C0.75 2.04357 1.1231 2.41667 1.58333 2.41667Z" stroke="var(--stroke-0, #565F6C)" stroke-width="1.5" stroke-linecap="round" stroke-linejoin="round"/>
<path d="M1.58333 14.0833C2.04357 14.0833 2.41667 13.7102 2.41667 13.25C2.41667 12.7898 2.04357 12.4167 1.58333 12.4167C1.1231 12.4167 0.75 12.7898 0.75 13.25C0.75 13.7102 1.1231 14.0833 1.58333 14.0833Z" stroke="var(--stroke-0, #565F6C)" stroke-width="1.5" stroke-linecap="round" stroke-linejoin="round"/>
</g>
</svg>
