<svg preserveAspectRatio="none" width="100%" height="100%" overflow="visible" style="display: block;" viewBox="0 0 24 24" fill="none" xmlns="http://www.w3.org/2000/svg">
<g id="Vector">
<path d="M0 7.2C0 3.22355 3.22355 0 7.2 0H16.8C20.7764 0 24 3.22355 24 7.2V16.8C24 20.7764 20.7764 24 16.8 24H7.2C3.22355 24 0 20.7764 0 16.8V7.2Z" fill="var(--fill-0, #F13D30)"/>
<path d="M17.3869 8.78157L16.0676 8.20434L16.5916 7.00673C16.4171 6.95535 16.215 6.89987 15.99 6.84486C15.1693 6.64417 14.0658 6.45478 12.9045 6.48276C11.7423 6.51076 10.5599 6.75533 9.54324 7.38702C8.54043 8.01011 7.64405 9.04317 7.09216 10.754C6.51594 12.5403 6.67281 13.7941 7.12713 14.6913C7.58984 15.605 8.41792 16.2613 9.38903 16.7299C10.3588 17.1978 11.4173 17.4516 12.2485 17.5868C12.661 17.6539 13.0101 17.6907 13.2543 17.7106C13.3762 17.7206 13.4715 17.7263 13.5349 17.7295C13.5666 17.731 13.5903 17.732 13.6053 17.7325L13.6213 17.7331L13.6242 17.7332L13.68 19.1727H13.5886L13.5861 19.1727L13.5786 19.1724C13.5724 19.1723 13.5639 19.172 13.5531 19.1716C13.5317 19.1708 13.5013 19.1696 13.4627 19.1676C13.3855 19.1638 13.2752 19.1571 13.1372 19.1459C12.8616 19.1234 12.4737 19.0824 12.0173 19.0081C11.1107 18.8606 9.90372 18.5771 8.76326 18.0268C7.62411 17.4772 6.49706 16.6345 5.84246 15.3418C5.17948 14.0326 5.05688 12.3728 5.7217 10.3119C6.36983 8.30274 7.4685 6.98081 8.78327 6.1639C10.0842 5.35559 11.5419 5.07517 12.8698 5.04317C14.1986 5.01116 15.4352 5.22676 16.3321 5.44608C16.7826 5.55624 17.1536 5.66531 17.4119 5.75426C18.0469 5.97296 18.2869 6.09296 18.4069 6.21296L17.3869 8.78157Z" fill="#F4F5F6"/>
<path d="M14.6397 8.05002C14.6397 8.05002 14.6403 8.05013 14.5199 8.75999C14.3995 9.46985 14.4 9.46994 14.4 9.46994C14.3707 9.46581 14.2887 9.45442 14.2286 9.44792C14.1082 9.43491 13.9319 9.42004 13.7173 9.41409C13.284 9.40207 12.7148 9.42699 12.1413 9.56501C11.5673 9.70312 11.0217 9.94641 10.5953 10.3475C10.1795 10.7387 9.8348 11.3189 9.7135 12.2164C9.5976 13.0739 9.85447 13.5814 10.2454 13.9302C10.6801 14.318 11.3542 14.5706 12.1466 14.711C12.9249 14.849 13.7346 14.8645 14.3605 14.8429C14.6709 14.8322 14.9304 14.8126 15.111 14.7959C15.2011 14.7875 15.2713 14.7799 15.3178 14.7745C15.3411 14.7718 15.3585 14.7697 15.3695 14.7683L15.3811 14.7668L15.3829 14.7665L16.2471 14.6491L16.0787 17.6799L14.641 17.6L14.7149 16.2685C14.6193 16.2737 14.5174 16.2784 14.4101 16.2821C13.7297 16.3055 12.81 16.291 11.8953 16.1289C10.9948 15.9694 10.0124 15.652 9.28686 15.0048C8.51758 14.3185 8.11043 13.3261 8.28647 12.0236C8.44899 10.8211 8.93619 9.9313 9.6086 9.29871C10.2704 8.67608 11.0693 8.34187 11.8044 8.16498C12.5398 7.98799 13.2442 7.96041 13.7572 7.97464C14.0157 7.98181 14.2308 7.99976 14.3834 8.01627C14.4599 8.02454 14.521 8.03249 14.5645 8.03861C14.5863 8.04168 14.6037 8.04429 14.6164 8.04627L14.632 8.04874L14.6371 8.04958L14.6389 8.04989L14.6397 8.05002Z" fill="#F4F5F6"/>
</g>
</svg>
