<svg preserveAspectRatio="none" width="100%" height="100%" overflow="visible" style="display: block;" viewBox="0 0 16.5 16.5" fill="none" xmlns="http://www.w3.org/2000/svg">
<path id="Icon" d="M4.91667 9.08333V12.4167M11.5833 7.41667V12.4167M8.25 4.08333V12.4167M4.75 15.75H11.75C13.1501 15.75 13.8502 15.75 14.385 15.4775C14.8554 15.2378 15.2378 14.8554 15.4775 14.385C15.75 13.8502 15.75 13.1501 15.75 11.75V4.75C15.75 3.34987 15.75 2.6498 15.4775 2.11502C15.2378 1.64462 14.8554 1.26217 14.385 1.02248C13.8502 0.750001 13.1501 0.750001 11.75 0.750001H4.75C3.34987 0.750001 2.6498 0.750001 2.11502 1.02248C1.64462 1.26217 1.26217 1.64462 1.02248 2.11502C0.750001 2.6498 0.750001 3.34987 0.750001 4.75V11.75C0.750001 13.1501 0.750001 13.8502 1.02248 14.385C1.26217 14.8554 1.64462 15.2378 2.11502 15.4775C2.6498 15.75 3.34987 15.75 4.75 15.75Z" stroke="var(--stroke-0, #F13D30)" stroke-width="1.5" stroke-linecap="round" stroke-linejoin="round"/>
</svg>
