<svg preserveAspectRatio="none" width="100%" height="100%" overflow="visible" style="display: block;" viewBox="0 0 18.1667 18.1667" fill="none" xmlns="http://www.w3.org/2000/svg">
<path id="Icon" d="M14.5 5.75V1.58333M3.66667 16.5833V12.4167M12.4167 3.66667H16.5833M1.58333 14.5H5.75M4.5 0.75L3.84628 2.05743C3.62504 2.49991 3.51442 2.72115 3.36664 2.91287C3.23551 3.08299 3.08299 3.23551 2.91287 3.36664C2.72115 3.51442 2.49991 3.62504 2.05743 3.84628L0.75 4.5L2.05743 5.15372C2.49991 5.37496 2.72115 5.48558 2.91287 5.63336C3.08299 5.76449 3.23551 5.91701 3.36664 6.08713C3.51442 6.27885 3.62504 6.50009 3.84628 6.94257L4.5 8.25L5.15372 6.94257C5.37496 6.50009 5.48558 6.27885 5.63336 6.08713C5.76449 5.91701 5.91701 5.76449 6.08713 5.63336C6.27885 5.48558 6.50009 5.37496 6.94257 5.15372L8.25 4.5L6.94257 3.84628C6.50009 3.62504 6.27885 3.51442 6.08713 3.36664C5.91701 3.23551 5.76449 3.08299 5.63336 2.91287C5.48558 2.72115 5.37496 2.49991 5.15372 2.05743L4.5 0.75ZM13.25 9.08333L12.4574 10.6685C12.2362 11.111 12.1255 11.3323 11.9778 11.524C11.8466 11.6941 11.6941 11.8466 11.524 11.9778C11.3323 12.1255 11.111 12.2362 10.6685 12.4574L9.08333 13.25L10.6685 14.0426C11.111 14.2638 11.3323 14.3745 11.524 14.5222C11.6941 14.6534 11.8466 14.8059 11.9778 14.976C12.1255 15.1677 12.2362 15.389 12.4574 15.8315L13.25 17.4167L14.0426 15.8315C14.2638 15.389 14.3745 15.1677 14.5222 14.976C14.6534 14.8059 14.8059 14.6534 14.976 14.5222C15.1677 14.3745 15.389 14.2638 15.8315 14.0426L17.4167 13.25L15.8315 12.4574C15.389 12.2362 15.1677 12.1255 14.976 11.9778C14.8059 11.8466 14.6534 11.6941 14.5222 11.524C14.3745 11.3323 14.2638 11.111 14.0426 10.6685L13.25 9.08333Z" stroke="var(--stroke-0, #565F6C)" stroke-width="1.5" stroke-linecap="round" stroke-linejoin="round"/>
</svg>
