<svg preserveAspectRatio="none" width="100%" height="100%" overflow="visible" style="display: block;" viewBox="0 0 18.1667 18.1667" fill="none" xmlns="http://www.w3.org/2000/svg">
<g id="Icon">
<path d="M16.75 17.4167C16.9834 17.4167 17.1 17.4167 17.1892 17.3713C17.2676 17.3313 17.3313 17.2676 17.3713 17.1892C17.4167 17.1 17.4167 16.9834 17.4167 16.75V8.08334C17.4167 7.84999 17.4167 7.73331 17.3713 7.64418C17.3313 7.56578 17.2676 7.50204 17.1892 7.46209C17.1 7.41668 16.9834 7.41668 16.75 7.41668L14.75 7.41668C14.5167 7.41668 14.4 7.41668 14.3108 7.46209C14.2324 7.50204 14.1687 7.56578 14.1288 7.64418C14.0833 7.73331 14.0833 7.84999 14.0833 8.08334V10.0833C14.0833 10.3167 14.0833 10.4334 14.0379 10.5225C13.998 10.6009 13.9342 10.6646 13.8558 10.7046C13.7667 10.75 13.65 10.75 13.4167 10.75H11.4167C11.1833 10.75 11.0666 10.75 10.9775 10.7954C10.8991 10.8354 10.8354 10.8991 10.7954 10.9775C10.75 11.0666 10.75 11.1833 10.75 11.4167V13.4167C10.75 13.65 10.75 13.7667 10.7046 13.8558C10.6646 13.9342 10.6009 13.998 10.5225 14.0379C10.4334 14.0833 10.3167 14.0833 10.0833 14.0833H8.08334C7.84999 14.0833 7.73331 14.0833 7.64418 14.1288C7.56578 14.1687 7.50204 14.2324 7.46209 14.3108C7.41667 14.4 7.41667 14.5167 7.41667 14.75V16.75C7.41667 16.9834 7.41667 17.1 7.46209 17.1892C7.50204 17.2676 7.56578 17.3313 7.64418 17.3713C7.73331 17.4167 7.84999 17.4167 8.08334 17.4167L16.75 17.4167Z" stroke="var(--stroke-0, #565F6C)" stroke-width="1.5" stroke-linecap="round" stroke-linejoin="round"/>
<path d="M7.41667 4.75001C7.41667 4.51665 7.41667 4.39997 7.46209 4.31085C7.50204 4.23244 7.56578 4.1687 7.64418 4.12876C7.73331 4.08334 7.84999 4.08334 8.08334 4.08334H10.0833C10.3167 4.08334 10.4334 4.08334 10.5225 4.12876C10.6009 4.1687 10.6646 4.23244 10.7046 4.31085C10.75 4.39997 10.75 4.51665 10.75 4.75001V6.75001C10.75 6.98336 10.75 7.10004 10.7046 7.18917C10.6646 7.26757 10.6009 7.33131 10.5225 7.37126C10.4334 7.41667 10.3167 7.41667 10.0833 7.41667H8.08334C7.84999 7.41667 7.73331 7.41667 7.64418 7.37126C7.56578 7.33131 7.50204 7.26757 7.46209 7.18917C7.41667 7.10004 7.41667 6.98336 7.41667 6.75001V4.75001Z" stroke="var(--stroke-0, #565F6C)" stroke-width="1.5" stroke-linecap="round" stroke-linejoin="round"/>
<path d="M1.58334 9.75001C1.58334 9.51665 1.58334 9.39997 1.62876 9.31084C1.6687 9.23244 1.73244 9.1687 1.81085 9.12876C1.89998 9.08334 2.01665 9.08334 2.25001 9.08334H4.25001C4.48336 9.08334 4.60004 9.08334 4.68917 9.12876C4.76757 9.1687 4.83131 9.23244 4.87126 9.31084C4.91667 9.39997 4.91667 9.51665 4.91667 9.75001V11.75C4.91667 11.9834 4.91667 12.1 4.87126 12.1892C4.83131 12.2676 4.76757 12.3313 4.68917 12.3713C4.60004 12.4167 4.48336 12.4167 4.25001 12.4167H2.25001C2.01665 12.4167 1.89998 12.4167 1.81085 12.3713C1.73244 12.3313 1.6687 12.2676 1.62876 12.1892C1.58334 12.1 1.58334 11.9834 1.58334 11.75V9.75001Z" stroke="var(--stroke-0, #565F6C)" stroke-width="1.5" stroke-linecap="round" stroke-linejoin="round"/>
<path d="M0.750008 1.41667C0.750008 1.18332 0.750008 1.06664 0.795422 0.977512C0.835369 0.899111 0.899111 0.835369 0.977512 0.795422C1.06664 0.750008 1.18332 0.750008 1.41667 0.750008H3.41667C3.65003 0.750008 3.76671 0.750008 3.85584 0.795422C3.93424 0.835369 3.99798 0.899111 4.03793 0.977512C4.08334 1.06664 4.08334 1.18332 4.08334 1.41667V3.41667C4.08334 3.65003 4.08334 3.76671 4.03793 3.85584C3.99798 3.93424 3.93424 3.99798 3.85584 4.03793C3.76671 4.08334 3.65003 4.08334 3.41667 4.08334H1.41667C1.18332 4.08334 1.06664 4.08334 0.977512 4.03793C0.899111 3.99798 0.835369 3.93424 0.795422 3.85584C0.750008 3.76671 0.750008 3.65003 0.750008 3.41667V1.41667Z" stroke="var(--stroke-0, #565F6C)" stroke-width="1.5" stroke-linecap="round" stroke-linejoin="round"/>
</g>
</svg>
