<svg preserveAspectRatio="none" width="100%" height="100%" overflow="visible" style="display: block;" viewBox="0 0 18.1667 16.5" fill="none" xmlns="http://www.w3.org/2000/svg">
<path id="Icon" d="M16.1667 4.91667V11.75C16.1667 13.1501 16.1667 13.8502 15.8942 14.385C15.6545 14.8554 15.2721 15.2378 14.8016 15.4775C14.2669 15.75 13.5668 15.75 12.1667 15.75H6C4.59987 15.75 3.89981 15.75 3.36503 15.4775C2.89462 15.2378 2.51217 14.8554 2.27249 14.385C2 13.8502 2 13.1501 2 11.75V4.91667M2.08334 0.750003H16.0833C16.55 0.750003 16.7834 0.750003 16.9617 0.840831C17.1185 0.920726 17.2459 1.04821 17.3258 1.20501C17.4167 1.38327 17.4167 1.61663 17.4167 2.08334V3.58334C17.4167 4.05005 17.4167 4.2834 17.3258 4.46166C17.2459 4.61846 17.1185 4.74595 16.9617 4.82584C16.7834 4.91667 16.55 4.91667 16.0833 4.91667H2.08334C1.61663 4.91667 1.38327 4.91667 1.20501 4.82584C1.04821 4.74595 0.920726 4.61846 0.840831 4.46166C0.750003 4.2834 0.750003 4.05005 0.750003 3.58334V2.08334C0.750003 1.61663 0.750003 1.38327 0.840831 1.20501C0.920726 1.04821 1.04821 0.920726 1.20501 0.840831C1.38327 0.750003 1.61663 0.750003 2.08334 0.750003ZM7.08334 7.83334H11.0833C11.55 7.83334 11.7834 7.83334 11.9617 7.92416C12.1185 8.00406 12.2459 8.13154 12.3258 8.28834C12.4167 8.4666 12.4167 8.69996 12.4167 9.16667V9.83334C12.4167 10.3 12.4167 10.5334 12.3258 10.7117C12.2459 10.8685 12.1185 10.9959 11.9617 11.0758C11.7834 11.1667 11.55 11.1667 11.0833 11.1667H7.08334C6.61663 11.1667 6.38327 11.1667 6.20501 11.0758C6.04821 10.9959 5.92073 10.8685 5.84083 10.7117C5.75 10.5334 5.75 10.3 5.75 9.83334V9.16667C5.75 8.69996 5.75 8.4666 5.84083 8.28834C5.92073 8.13154 6.04821 8.00406 6.20501 7.92416C6.38327 7.83334 6.61663 7.83334 7.08334 7.83334Z" stroke="var(--stroke-0, #464E58)" stroke-width="1.5" stroke-linecap="round" stroke-linejoin="round"/>
</svg>
