<svg preserveAspectRatio="none" width="100%" height="100%" overflow="visible" style="display: block;" viewBox="0 0 16.5 18.1667" fill="none" xmlns="http://www.w3.org/2000/svg">
<path id="Icon" d="M12.4167 7V4.16667C12.4167 3.69996 12.4167 3.4666 12.3258 3.28834C12.2459 3.13154 12.1185 3.00406 11.9617 2.92416C11.7834 2.83333 11.55 2.83333 11.0833 2.83333H0.75M9.08333 11.1667V14C9.08333 14.4667 9.08333 14.7001 8.99251 14.8783C8.91261 15.0351 8.78513 15.1626 8.62832 15.2425C8.45007 15.3333 8.21671 15.3333 7.75 15.3333H0.75M0.75 0.75L0.750001 17.4167M0.75 11.1667L14.4167 11.1667C14.8834 11.1667 15.1167 11.1667 15.295 11.0758C15.4518 10.9959 15.5793 10.8685 15.6592 10.7117C15.75 10.5334 15.75 10.3 15.75 9.83333V8.33333C15.75 7.86662 15.75 7.63327 15.6592 7.45501C15.5793 7.29821 15.4518 7.17072 15.295 7.09083C15.1167 7 14.8834 7 14.4167 7L0.75 7L0.75 11.1667Z" stroke="var(--stroke-0, #565F6C)" stroke-width="1.5" stroke-linecap="round" stroke-linejoin="round"/>
</svg>
