<svg preserveAspectRatio="none" width="100%" height="100%" overflow="visible" style="display: block;" viewBox="0 0 17.75 16.75" fill="none" xmlns="http://www.w3.org/2000/svg">
<g id="Shape" filter="url(#filter0_d_271_9947)">
<path fill-rule="evenodd" clip-rule="evenodd" d="M5.04775 2.22281C5.535 2.03745 6.49631 2.15096 6.75008 2.71537C6.9663 3.19648 7.15206 4.0077 7.16221 3.83483C7.18658 3.45057 7.13785 2.61957 7.30128 2.18532C7.42005 1.86875 7.65353 1.57092 7.99765 1.46575C8.28695 1.37619 8.62701 1.34495 8.92748 1.40847C9.24521 1.47512 9.57918 1.70734 9.70404 1.92811C10.0715 2.57687 10.0776 3.90564 10.0949 3.83483C10.1598 3.55158 10.1659 2.555 10.3821 2.18532C10.5253 1.9406 10.8866 1.72192 11.0795 1.68651C11.3779 1.63236 11.7454 1.6157 12.0581 1.67818C12.3108 1.72921 12.6529 2.03641 12.7453 2.18532C12.9676 2.54355 13.0925 3.55575 13.13 3.91189C13.1463 4.05872 13.2051 3.50264 13.4274 3.14545C13.8396 2.48003 15.2993 2.3509 15.3541 3.81088C15.3805 4.49193 15.3744 4.46069 15.3744 4.91888C15.3744 5.45622 15.3622 5.78113 15.3338 6.1706C15.3034 6.5861 15.2161 7.52853 15.0892 7.98464C15.0019 8.29809 14.7126 9.00309 14.4263 9.42588C14.4263 9.42588 13.3361 10.7276 13.2173 11.3128C13.0985 11.8991 13.1381 11.9033 13.1138 12.3177C13.0904 12.7332 13.2366 13.2789 13.2366 13.2789C13.2366 13.2789 12.4235 13.3872 11.984 13.3143C11.5871 13.2497 11.0957 12.4396 10.9689 12.1917C10.7943 11.8502 10.4217 11.9158 10.2766 12.1678C10.0492 12.5666 9.55685 13.282 9.2107 13.3268C8.53159 13.4143 7.12466 13.358 6.02327 13.3476C6.02327 13.3476 6.21106 12.2948 5.79284 11.9335C5.48323 11.6627 4.9503 11.117 4.63156 10.8296L3.78699 9.87054C3.49972 9.49565 2.76986 8.90312 2.52522 7.80344C2.309 6.82873 2.33032 6.35075 2.56278 5.96024C2.79828 5.56348 3.2429 5.34688 3.42967 5.30939C3.64082 5.26566 4.13213 5.26878 4.31789 5.37396C4.54426 5.50204 4.63562 5.53953 4.81326 5.78113C5.04674 6.10083 5.12998 6.25599 5.02948 5.90713C4.95233 5.6343 4.70262 5.28752 4.58892 4.89702C4.47828 4.52109 4.18187 3.91502 4.20318 3.30791C4.21131 3.07777 4.30774 2.50502 5.04775 2.22281Z" fill="var(--fill-0, #F4F5F6)"/>
<path fill-rule="evenodd" clip-rule="evenodd" d="M5.04775 2.22281C5.535 2.03745 6.49631 2.15096 6.75008 2.71537C6.9663 3.19648 7.15206 4.0077 7.16221 3.83483C7.18658 3.45057 7.13785 2.61957 7.30128 2.18532C7.42005 1.86875 7.65353 1.57092 7.99765 1.46575C8.28695 1.37619 8.62701 1.34495 8.92748 1.40847C9.24521 1.47512 9.57918 1.70734 9.70404 1.92811C10.0715 2.57687 10.0776 3.90564 10.0949 3.83483C10.1598 3.55158 10.1659 2.555 10.3821 2.18532C10.5253 1.9406 10.8866 1.72192 11.0795 1.68651C11.3779 1.63236 11.7454 1.6157 12.0581 1.67818C12.3108 1.72921 12.6529 2.03641 12.7453 2.18532C12.9676 2.54355 13.0925 3.55575 13.13 3.91189C13.1463 4.05872 13.2051 3.50264 13.4274 3.14545C13.8396 2.48003 15.2993 2.3509 15.3541 3.81088C15.3805 4.49193 15.3744 4.46069 15.3744 4.91888C15.3744 5.45622 15.3622 5.78113 15.3338 6.1706C15.3034 6.5861 15.2161 7.52853 15.0892 7.98464C15.0019 8.29809 14.7126 9.00309 14.4263 9.42588C14.4263 9.42588 13.3361 10.7276 13.2173 11.3128C13.0985 11.8991 13.1381 11.9033 13.1138 12.3177C13.0904 12.7332 13.2366 13.2789 13.2366 13.2789C13.2366 13.2789 12.4235 13.3872 11.984 13.3143C11.5871 13.2497 11.0957 12.4396 10.9689 12.1917C10.7943 11.8502 10.4217 11.9158 10.2766 12.1678C10.0492 12.5666 9.55685 13.282 9.2107 13.3268C8.53159 13.4143 7.12466 13.358 6.02327 13.3476C6.02327 13.3476 6.21106 12.2948 5.79284 11.9335C5.48323 11.6627 4.9503 11.117 4.63156 10.8296L3.78699 9.87054C3.49972 9.49565 2.76986 8.90312 2.52522 7.80344C2.309 6.82873 2.33032 6.35075 2.56278 5.96024C2.79828 5.56348 3.2429 5.34688 3.42967 5.30939C3.64082 5.26566 4.13213 5.26878 4.31789 5.37396C4.54426 5.50204 4.63562 5.53953 4.81326 5.78113C5.04674 6.10083 5.12998 6.25599 5.02948 5.90713C4.95233 5.6343 4.70262 5.28752 4.58892 4.89702C4.47828 4.52109 4.18187 3.91502 4.20318 3.30791C4.21131 3.07777 4.30774 2.50502 5.04775 2.22281Z" stroke="var(--stroke-0, #292D33)" stroke-width="0.75" stroke-linecap="round" stroke-linejoin="round"/>
</g>
<defs>
<filter id="filter0_d_271_9947" x="5.96046e-08" y="0" width="17.75" height="16.75" filterUnits="userSpaceOnUse" color-interpolation-filters="sRGB">
<feFlood flood-opacity="0" result="BackgroundImageFix"/>
<feColorMatrix in="SourceAlpha" type="matrix" values="0 0 0 0 0 0 0 0 0 0 0 0 0 0 0 0 0 0 127 0" result="hardAlpha"/>
<feOffset dy="1"/>
<feGaussianBlur stdDeviation="1"/>
<feColorMatrix type="matrix" values="0 0 0 0 0.027451 0 0 0 0 0.12549 0 0 0 0 0.239216 0 0 0 0.24 0"/>
<feBlend mode="normal" in2="BackgroundImageFix" result="effect1_dropShadow_271_9947"/>
<feBlend mode="normal" in="SourceGraphic" in2="effect1_dropShadow_271_9947" result="shape"/>
</filter>
</defs>
</svg>
