<svg width="28" height="36" viewBox="0 0 28 36" fill="none" xmlns="http://www.w3.org/2000/svg">
<path d="M10.6667 18.8333V22.1667M17.3333 17.1667V22.1667M14 13.8333V22.1667M10.5 25.5H17.5C18.9001 25.5 19.6002 25.5 20.135 25.2275C20.6054 24.9878 20.9878 24.6054 21.2275 24.135C21.5 23.6002 21.5 22.9001 21.5 21.5V14.5C21.5 13.0999 21.5 12.3998 21.2275 11.865C20.9878 11.3946 20.6054 11.0122 20.135 10.7725C19.6002 10.5 18.9001 10.5 17.5 10.5H10.5C9.09987 10.5 8.3998 10.5 7.86502 10.7725C7.39462 11.0122 7.01217 11.3946 6.77248 11.865C6.5 12.3998 6.5 13.0999 6.5 14.5V21.5C6.5 22.9001 6.5 23.6002 6.77248 24.135C7.01217 24.6054 7.39462 24.9878 7.86502 25.2275C8.3998 25.5 9.09987 25.5 10.5 25.5Z" stroke="#565F6C" stroke-width="1.5" stroke-linecap="round" stroke-linejoin="round"/>
</svg>
